<?xml version="1.0" encoding="UTF-8"?>
<svg width="13px" height="13px" viewBox="0 0 13 13" version="1.1" xmlns="http://www.w3.org/2000/svg" xmlns:xlink="http://www.w3.org/1999/xlink">
    <!-- Generator: Sketch 49.1 (51147) - http://www.bohemiancoding.com/sketch -->
    <title>iconfinder_10_171505</title>
    <desc>Created with Sketch.</desc>
    <defs></defs>
    <g id="Page-1" stroke="none" stroke-width="1" fill="none" fill-rule="evenodd">
        <g id="iconfinder_10_171505" fill="#888181" fill-rule="nonzero">
            <path d="M10.4995795,6.50315008 C10.4995795,6.22798153 10.279352,6.00506721 10.0078894,6.00506721 L6.99900936,6.00506721 L6.99900936,3.00063429 L6.99900936,3.00054164 C6.99900936,2.7244466 6.77498325,2.50051313 6.49907351,2.50051313 C6.22297846,2.50051313 5.99895235,2.7244466 5.99895235,3.00054164 L5.99895235,6.50120444 C5.99895235,6.77739213 6.22297846,7.0013256 6.49907351,7.0013256 L10.0081674,7.0013256 C10.279352,7.0013256 10.4995795,6.77831863 10.4995795,6.50315008 M12.0011474,6.5 C12.0011474,9.53871317 9.53815728,12.0020739 6.50009265,12.0020739 C3.46184272,12.0020739 0.999037872,9.53871317 0.999037872,6.5 C0.999037872,3.46128683 3.46184272,0.99792608 6.50009265,0.99792608 C9.53815728,0.99792608 12.0011474,3.46128683 12.0011474,6.5 M13,6.5 C13,2.91011588 10.0898841,0 6.50009265,0 C2.91011588,0 0,2.91011588 0,6.5 C0,10.0898841 2.91011588,13 6.50009265,13 C10.0898841,13 13,10.0898841 13,6.5" id="Shape"></path>
        </g>
    </g>
</svg>