<?xml version="1.0" encoding="UTF-8"?>
<svg width="64px" height="18px" viewBox="0 0 64 18" version="1.1" xmlns="http://www.w3.org/2000/svg" xmlns:xlink="http://www.w3.org/1999/xlink">
    <!-- Generator: Sketch 49.1 (51147) - http://www.bohemiancoding.com/sketch -->
    <title>Group 2</title>
    <desc>Created with Sketch.</desc>
    <defs></defs>
    <g id="Page-1" stroke="none" stroke-width="1" fill="none" fill-rule="evenodd">
        <g id="Group-2" fill-rule="nonzero">
            <g id="star-(1)" transform="translate(23.000000, 0.000000)">
                <path d="M0,9.00021768 C0,4.02916848 4.02944627,0 8.99985488,0 C13.9705175,0 18,4.02920476 18,9.00021768 C18,13.9705413 13.9705175,18 8.99985488,18 C4.02944627,18 0,13.9705413 0,9.00021768 Z" id="Shape" fill="#F15C4E"></path>
                <polygon id="Shape" fill="#FFFFFF" points="8.9997109 3.29577465 10.7630881 6.88383964 14.7042254 7.45996192 11.8517152 10.252777 12.5250559 14.1971831 8.9997109 12.3349433 5.47396842 14.1971831 6.14748982 10.252777 3.29577465 7.45996192 7.23745399 6.88383964"></polygon>
            </g>
            <g id="star-(1)" transform="translate(46.000000, 0.000000)">
                <path d="M0,9.00021768 C0,4.02916848 4.02944627,0 8.99985488,0 C13.9705175,0 18,4.02920476 18,9.00021768 C18,13.9705413 13.9705175,18 8.99985488,18 C4.02944627,18 0,13.9705413 0,9.00021768 Z" id="Shape" fill="#CCCCCC"></path>
                <path d="M0,9.00021768 C0,4.02916848 4.02944627,-4.08562141e-14 8.99985488,-4.08562141e-14 C9.18261719,18.1826172 9.03222656,-0.15234375 8.99985488,18 C4.02944627,18 0,13.9705413 0,9.00021768 Z" id="Shape" fill="#F15C4E"></path>
                <polygon id="Shape" fill="#FFFFFF" points="8.9997109 3.29577465 10.7630881 6.88383964 14.7042254 7.45996192 11.8517152 10.252777 12.5250559 14.1971831 8.9997109 12.3349433 5.47396842 14.1971831 6.14748982 10.252777 3.29577465 7.45996192 7.23745399 6.88383964"></polygon>
            </g>
            <g id="star-(1)">
                <path d="M0,9.00021768 C0,4.02916848 4.02944627,0 8.99985488,0 C13.9705175,0 18,4.02920476 18,9.00021768 C18,13.9705413 13.9705175,18 8.99985488,18 C4.02944627,18 0,13.9705413 0,9.00021768 Z" id="Shape" fill="#CCCCCC"></path>
                <polygon id="Shape" fill="#FFFFFF" points="8.9997109 3.29577465 10.7630881 6.88383964 14.7042254 7.45996192 11.8517152 10.252777 12.5250559 14.1971831 8.9997109 12.3349433 5.47396842 14.1971831 6.14748982 10.252777 3.29577465 7.45996192 7.23745399 6.88383964"></polygon>
            </g>
        </g>
    </g>
</svg>